<?xml version="1.0" standalone="no"?>
<!DOCTYPE svg PUBLIC "-//W3C//DTD SVG 20010904//EN"
 "http://www.w3.org/TR/2001/REC-SVG-20010904/DTD/svg10.dtd">
<svg version="1.0" xmlns="http://www.w3.org/2000/svg"
 width="400.000000pt" height="400.000000pt" viewBox="0 0 400.000000 400.000000"
 preserveAspectRatio="xMidYMid meet">

<g transform="translate(0.000000,400.000000) scale(0.100000,-0.100000)"
fill="#000000" stroke="none">
<path d="M0 2000 l0 -2000 239 0 c182 0 241 3 244 13 4 9 6 9 6 0 1 -9 21 -13
67 -13 47 0 65 3 62 12 -3 7 -15 15 -29 18 -23 6 -24 9 -21 72 3 40 0 68 -7
72 -6 4 -11 17 -11 29 0 12 -11 39 -23 59 l-23 36 -11 -26 c-6 -15 -10 -63 -9
-107 1 -44 -2 -91 -5 -105 -7 -24 -8 -24 -9 5 0 17 -5 120 -10 230 -6 127 -6
262 0 370 11 192 17 233 37 290 8 22 23 85 34 140 36 176 112 371 165 420 36
34 164 102 309 165 66 28 185 83 265 120 183 86 222 100 228 82 2 -7 15 -25
29 -40 26 -29 22 -15 -9 30 -21 30 -18 54 25 172 21 58 21 59 29 30 5 -16 16
-38 26 -49 19 -22 204 -130 240 -139 12 -3 32 -9 43 -12 13 -4 19 -2 16 4 -4
5 8 8 27 6 43 -3 89 33 62 48 -9 5 -16 18 -16 29 0 11 -5 17 -10 14 -5 -3 -10
1 -10 9 0 9 3 15 8 15 4 -1 16 -1 27 0 19 2 19 3 -2 13 -26 13 -32 33 -7 24 9
-4 27 0 40 9 22 14 22 16 7 55 -10 25 -22 40 -33 40 -10 0 -27 8 -38 18 -16
14 -18 22 -11 50 8 27 14 32 39 32 31 0 43 23 18 33 -10 4 -10 6 0 6 6 1 12
10 12 21 0 13 9 22 28 26 15 3 47 12 72 20 l45 14 -39 -4 c-53 -7 -156 4 -156
17 0 5 13 23 30 39 35 33 36 48 10 107 -13 28 -18 55 -15 75 4 19 -2 54 -15
90 -11 33 -20 72 -20 88 0 24 4 28 29 28 25 0 30 -5 35 -35 14 -70 83 -125
159 -125 85 0 147 69 147 163 0 26 3 47 8 47 19 0 50 -32 55 -57 15 -72 25
-106 26 -90 0 9 5 17 11 17 20 0 26 -34 17 -118 -7 -63 -6 -102 4 -142 15 -65
14 -80 -11 -100 -21 -18 -29 -58 -36 -196 l-6 -100 32 -46 c23 -33 34 -62 38
-96 4 -47 7 -51 45 -69 23 -10 55 -27 72 -39 17 -11 69 -38 115 -60 141 -66
322 -178 379 -236 88 -88 168 -272 211 -482 12 -59 41 -176 65 -260 60 -211
70 -285 55 -408 l-12 -99 33 -47 c28 -38 33 -55 33 -97 -1 -28 -9 -65 -18 -82
-9 -18 -16 -34 -16 -38 0 -3 131 -5 290 -5 l290 0 0 2000 0 2000 -2000 0
-2000 0 0 -2000z m2126 1210 c75 -51 153 -121 175 -157 27 -44 60 -173 49
-192 -6 -10 -10 -11 -10 -3 0 6 -7 12 -16 12 -9 0 -32 14 -51 31 -33 28 -40
30 -98 27 -35 -2 -61 0 -58 5 8 13 -23 7 -43 -9 -10 -8 -12 -13 -4 -9 11 5 11
3 -2 -7 -9 -8 -26 -33 -39 -57 l-22 -43 -52 5 c-39 4 -59 12 -84 36 -29 27
-40 31 -88 31 -46 0 -54 3 -49 16 9 24 -4 62 -23 67 -16 4 -18 14 -14 93 3 49
10 94 16 100 7 6 48 23 92 37 44 14 100 33 125 41 71 24 137 16 196 -24z m101
-300 c14 0 37 -13 54 -29 24 -24 29 -38 29 -76 0 -124 -109 -194 -209 -133
-47 29 -62 49 -49 65 13 17 31 5 25 -16 -3 -13 2 -16 22 -15 14 1 31 3 37 3 7
1 14 10 17 20 3 13 17 22 41 26 20 4 39 11 41 16 6 9 -46 39 -69 39 -8 0 -19
8 -25 17 -8 14 -13 15 -35 5 -20 -9 -26 -9 -26 1 0 8 -4 7 -10 -3 -5 -8 -10
-11 -10 -6 0 5 -7 3 -15 -4 -24 -20 -19 13 5 35 26 24 121 64 138 59 8 -2 25
-4 39 -4z m-173 -136 c5 -14 4 -15 -9 -4 -17 14 -19 20 -6 20 5 0 12 -7 15
-16z m-209 -25 c-2 -3 -21 -3 -41 -1 l-37 5 29 11 c20 9 32 9 40 2 7 -6 10
-14 9 -17z m-8 -266 c27 -31 29 -62 7 -104 -16 -33 -13 -59 8 -59 7 0 19 -15
27 -32 7 -18 19 -46 27 -63 12 -26 11 -30 -3 -34 -9 -1 -25 -12 -36 -22 -34
-32 -39 -27 -81 71 -46 108 -42 226 9 262 15 11 17 10 42 -19z"/>
<path d="M2070 2520 c0 -5 7 -10 15 -10 8 0 15 5 15 10 0 6 -7 10 -15 10 -8 0
-15 -4 -15 -10z"/>
<path d="M2170 2360 c-12 -8 -11 -10 8 -10 12 0 22 5 22 10 0 13 -11 13 -30 0z"/>
<path d="M2378 1920 c-4 -25 -26 -82 -49 -127 -47 -91 -47 -118 0 -53 39 54
63 128 59 182 l-3 43 -7 -45z"/>
<path d="M524 662 c-25 -16 -34 -50 -22 -76 6 -14 15 -26 20 -26 4 0 7 -5 6
-12 -2 -7 7 -12 19 -13 12 0 32 -10 45 -22 40 -37 132 -103 137 -98 4 5 -56
95 -71 105 -4 3 -9 15 -11 25 -5 31 -26 64 -60 96 -33 30 -45 34 -63 21z"/>
<path d="M501 518 c-1 -14 -4 -34 -8 -44 -4 -11 -2 -15 7 -12 16 5 19 25 9 58
l-7 25 -1 -27z"/>
<path d="M527 462 c-6 -29 3 -40 60 -80 34 -24 73 -36 73 -23 0 4 -29 35 -64
69 -63 60 -64 60 -69 34z"/>
<path d="M1202 380 c0 -14 2 -19 5 -12 2 6 2 18 0 25 -3 6 -5 1 -5 -13z"/>
<path d="M1174 154 c-4 -14 -2 -30 5 -37 8 -8 11 -1 11 26 0 43 -7 48 -16 11z"/>
<path d="M1165 10 c-3 -5 -1 -10 4 -10 6 0 11 5 11 10 0 6 -2 10 -4 10 -3 0
-8 -4 -11 -10z"/>
</g>
</svg>
